name rise43.5482peak65.4966fall89.1036.mot
datacolumns 19
datarows 21
range 9.04162800000000 9.07496100000000
endheader
time	ground_force1_vx	ground_force1_vy	ground_force1_vz	ground_force1_px	ground_force1_py	ground_force1_pz	ground_force2_vx	ground_force2_vy	ground_force2_vz	ground_force2_px	ground_force2_py	ground_force2_pz	ground_torque1_x	ground_torque1_y	ground_torque1_z	ground_torque2_x	ground_torque2_y	ground_torque2_z	
9.04162800000000	11.05070300000000	700.52963999999997	40.37595100000000	0.19232800000000	0.00000000000000	0.10918000000000	0.00000000000000	0.00000000000000	0.00000000000000	0.00000000000000	0.00000000000000	0.00000000000000	0.00000000000000	14.84393000000000	0.00000000000000	0.00000000000000	0.00000000000000	0.00000000000000	
9.04329900000000	10.52655700000000	701.40158899999994	40.29486100000000	0.19124000000000	0.00000000000000	0.10906300000000	0.00000000000000	0.00000000000000	0.00000000000000	0.00000000000000	0.00000000000000	0.00000000000000	0.00000000000000	14.91301400000000	0.00000000000000	0.00000000000000	0.00000000000000	0.00000000000000	
9.04495800000000	9.99326700000000	702.31102799999996	40.21865000000000	0.19014700000000	0.00000000000000	0.10894800000000	0.00000000000000	0.00000000000000	0.00000000000000	0.00000000000000	0.00000000000000	0.00000000000000	0.00000000000000	14.98604500000000	0.00000000000000	0.00000000000000	0.00000000000000	0.00000000000000	
9.04662400000000	9.45117700000000	703.25809900000002	40.14740500000000	0.18904800000000	0.00000000000000	0.10883400000000	0.00000000000000	0.00000000000000	0.00000000000000	0.00000000000000	0.00000000000000	0.00000000000000	0.00000000000000	15.06293500000000	0.00000000000000	0.00000000000000	0.00000000000000	0.00000000000000	
9.04829700000000	8.90065700000000	704.24296100000004	40.08122000000000	0.18794600000000	0.00000000000000	0.10872200000000	0.00000000000000	0.00000000000000	0.00000000000000	0.00000000000000	0.00000000000000	0.00000000000000	0.00000000000000	15.14359100000000	0.00000000000000	0.00000000000000	0.00000000000000	0.00000000000000	
9.04996500000000	8.34210500000000	705.26578400000005	40.02019100000000	0.18684100000000	0.00000000000000	0.10861100000000	0.00000000000000	0.00000000000000	0.00000000000000	0.00000000000000	0.00000000000000	0.00000000000000	0.00000000000000	15.22791200000000	0.00000000000000	0.00000000000000	0.00000000000000	0.00000000000000	
9.05163000000000	7.77594600000000	706.32674699999995	39.96441700000000	0.18573600000000	0.00000000000000	0.10850100000000	0.00000000000000	0.00000000000000	0.00000000000000	0.00000000000000	0.00000000000000	0.00000000000000	0.00000000000000	15.31578900000000	0.00000000000000	0.00000000000000	0.00000000000000	0.00000000000000	
9.05329500000000	7.20262600000000	707.42603099999997	39.91400300000000	0.18463100000000	0.00000000000000	0.10839300000000	0.00000000000000	0.00000000000000	0.00000000000000	0.00000000000000	0.00000000000000	0.00000000000000	0.00000000000000	15.40710700000000	0.00000000000000	0.00000000000000	0.00000000000000	0.00000000000000	
9.05495800000000	6.62261000000000	708.56381599999997	39.86905600000000	0.18352700000000	0.00000000000000	0.10828600000000	0.00000000000000	0.00000000000000	0.00000000000000	0.00000000000000	0.00000000000000	0.00000000000000	0.00000000000000	15.50174300000000	0.00000000000000	0.00000000000000	0.00000000000000	0.00000000000000	
9.05662700000000	6.03638500000000	709.74027300000000	39.82968700000000	0.18242600000000	0.00000000000000	0.10818100000000	0.00000000000000	0.00000000000000	0.00000000000000	0.00000000000000	0.00000000000000	0.00000000000000	0.00000000000000	15.59956800000000	0.00000000000000	0.00000000000000	0.00000000000000	0.00000000000000	
9.05829800000000	5.44445200000000	710.95556099999999	39.79601100000000	0.18132900000000	0.00000000000000	0.10807800000000	0.00000000000000	0.00000000000000	0.00000000000000	0.00000000000000	0.00000000000000	0.00000000000000	0.00000000000000	15.70044600000000	0.00000000000000	0.00000000000000	0.00000000000000	0.00000000000000	
9.05996200000000	4.84732800000000	712.20982100000003	39.76814600000000	0.18023600000000	0.00000000000000	0.10797600000000	0.00000000000000	0.00000000000000	0.00000000000000	0.00000000000000	0.00000000000000	0.00000000000000	0.00000000000000	15.80423600000000	0.00000000000000	0.00000000000000	0.00000000000000	0.00000000000000	
9.06163200000000	4.24554100000000	713.50316899999996	39.74621300000000	0.17914900000000	0.00000000000000	0.10787500000000	0.00000000000000	0.00000000000000	0.00000000000000	0.00000000000000	0.00000000000000	0.00000000000000	0.00000000000000	15.91079000000000	0.00000000000000	0.00000000000000	0.00000000000000	0.00000000000000	
9.06329300000000	3.63963000000000	714.83569199999999	39.73033700000000	0.17807000000000	0.00000000000000	0.10777600000000	0.00000000000000	0.00000000000000	0.00000000000000	0.00000000000000	0.00000000000000	0.00000000000000	0.00000000000000	16.01995300000000	0.00000000000000	0.00000000000000	0.00000000000000	0.00000000000000	
9.06495700000000	3.03014100000000	716.20744100000002	39.72064500000000	0.17699700000000	0.00000000000000	0.10767900000000	0.00000000000000	0.00000000000000	0.00000000000000	0.00000000000000	0.00000000000000	0.00000000000000	0.00000000000000	16.13156800000000	0.00000000000000	0.00000000000000	0.00000000000000	0.00000000000000	
9.06662600000000	2.41762700000000	717.61842899999999	39.71726700000000	0.17593300000000	0.00000000000000	0.10758300000000	0.00000000000000	0.00000000000000	0.00000000000000	0.00000000000000	0.00000000000000	0.00000000000000	0.00000000000000	16.24547000000000	0.00000000000000	0.00000000000000	0.00000000000000	0.00000000000000	
9.06829200000000	1.80264400000000	719.06861800000001	39.72033600000000	0.17487800000000	0.00000000000000	0.10748900000000	0.00000000000000	0.00000000000000	0.00000000000000	0.00000000000000	0.00000000000000	0.00000000000000	0.00000000000000	16.36149100000000	0.00000000000000	0.00000000000000	0.00000000000000	0.00000000000000	
9.06995900000000	1.18574900000000	720.55792099999996	39.72998700000000	0.17383300000000	0.00000000000000	0.10739600000000	0.00000000000000	0.00000000000000	0.00000000000000	0.00000000000000	0.00000000000000	0.00000000000000	0.00000000000000	16.47945800000000	0.00000000000000	0.00000000000000	0.00000000000000	0.00000000000000	
9.07163000000000	0.56750000000000	722.08619499999998	39.74635800000000	0.17279800000000	0.00000000000000	0.10730500000000	0.00000000000000	0.00000000000000	0.00000000000000	0.00000000000000	0.00000000000000	0.00000000000000	0.00000000000000	16.59919300000000	0.00000000000000	0.00000000000000	0.00000000000000	0.00000000000000	
9.07329700000000	-0.05154700000000	723.65323000000001	39.76958600000000	0.17177300000000	0.00000000000000	0.10721600000000	0.00000000000000	0.00000000000000	0.00000000000000	0.00000000000000	0.00000000000000	0.00000000000000	0.00000000000000	16.72051600000000	0.00000000000000	0.00000000000000	0.00000000000000	0.00000000000000	
9.07496100000000	-0.67084100000000	725.25875299999996	39.79981400000000	0.17076000000000	0.00000000000000	0.10712800000000	0.00000000000000	0.00000000000000	0.00000000000000	0.00000000000000	0.00000000000000	0.00000000000000	0.00000000000000	16.84324500000000	0.00000000000000	0.00000000000000	0.00000000000000	0.00000000000000	
